<?xml version="1.0" encoding="utf-8"?>
<!-- Generator: Adobe Illustrator 19.0.0, SVG Export Plug-In . SVG Version: 6.00 Build 0)  -->
<svg version="1.1" id="Layer_1" xmlns="http://www.w3.org/2000/svg" xmlns:xlink="http://www.w3.org/1999/xlink" x="0px" y="0px"
	 width="411.7px" height="111.5px" viewBox="0 0 411.7 111.5" style="enable-background:new 0 0 411.7 111.5;" xml:space="preserve"
	>
<style type="text/css">
	.st0{fill-rule:evenodd;clip-rule:evenodd;fill:#CC212A;}
	.st1{fill:#CC212A;}
</style>
<g id="XMLID_22_">
	<g id="XMLID_20_">
		<path id="XMLID_24_" class="st0" d="M21.7,1.9h70.1l10.8,33.3l10.8,33.3L85,89.1l-28.3,20.5L28.4,89.1L0,68.5l10.9-33.3L21.7,1.9z
			 M27.6,10h57l8.8,27.1l8.8,27.1l-23,16.7L56.1,97.7l-23-16.8L10,64.2l8.8-27.1L27.6,10z M27.6,10"/>
		<path id="XMLID_21_" class="st0" d="M46.2,53.9l26.8-19.4l-2.7-8.2H39.5L30,55.5l24.9,18.1l33.1-24L91.3,60l-35.8,26L19.6,60
			l13.7-42.2h44.4l6.7,20.3l0.1,0.1L54.2,60.4L46.2,53.9z M46.2,53.9"/>
	</g>
	<g id="XMLID_50_">
		<path id="XMLID_51_" class="st1" d="M169.9,1.8c9.7,0,17.7,3.2,24.2,9.7c6.5,6.5,9.7,14.5,9.7,24.2c0,9.7-3.2,17.7-9.7,24.2
			c-6.5,6.5-14.5,9.7-24.2,9.7h-27.7v40h-10.8V1.8H169.9z M169.9,59.5c6.7,0,12.2-2.2,16.6-6.7c4.4-4.5,6.5-10.1,6.5-17
			c0-6.9-2.2-12.6-6.5-17c-4.4-4.5-9.9-6.7-16.6-6.7h-27.7v47.4H169.9z"/>
		<path id="XMLID_54_" class="st1" d="M310.7,95.3c-10.8,10.8-24,16.3-39.6,16.3c-15.6,0-28.8-5.4-39.6-16.3
			c-10.8-10.8-16.2-24-16.2-39.5c0-15.5,5.4-28.7,16.2-39.5C242.3,5.4,255.5,0,271.1,0c15.6,0,28.8,5.4,39.6,16.3
			c10.8,10.8,16.2,24,16.2,39.5C326.9,71.3,321.5,84.4,310.7,95.3z M239.1,87.9c8.6,8.8,19.3,13.2,32,13.2c12.7,0,23.4-4.4,32-13.2
			c8.6-8.8,12.9-19.5,12.9-32.1c0-12.6-4.3-23.3-12.9-32.1c-8.6-8.8-19.3-13.2-32-13.2c-12.7,0-23.4,4.4-32,13.2
			c-8.6,8.8-12.9,19.5-12.9,32.1C226.1,68.4,230.4,79.1,239.1,87.9z"/>
		<path id="XMLID_57_" class="st1" d="M375.4,111.5c-9.9,0-18.3-2.3-25.3-7c-7-4.7-11.9-11.1-14.7-19.3l9.2-5.4
			c2,6.7,5.5,11.9,10.8,15.6c5.2,3.7,12,5.6,20.2,5.6c8,0,14.2-1.8,18.7-5.3s6.7-8.2,6.7-14.1c0-5.6-2.1-9.9-6.2-12.8
			c-4.1-2.9-10.9-5.9-20.3-8.9c-11.2-3.7-18.6-6.7-22.2-8.9c-8.2-4.9-12.3-12.1-12.3-21.4c0-9.1,3.2-16.4,9.5-21.6
			c6.4-5.3,14.2-7.9,23.6-7.9c8.4,0,15.7,2.2,21.9,6.5c6.2,4.4,10.7,9.9,13.7,16.7l-9.1,5.1c-4.9-11.9-13.8-17.9-26.5-17.9
			c-6.7,0-12.1,1.6-16.2,4.9c-4.1,3.3-6.2,7.9-6.2,13.7c0,5.3,1.8,9.3,5.5,12c3.7,2.7,9.8,5.4,18.3,8.2c3.9,1.3,6.7,2.3,8.4,2.8
			c1.7,0.6,4.2,1.5,7.4,2.8c3.2,1.3,5.6,2.4,7.2,3.4c1.5,1,3.4,2.3,5.6,4c2.2,1.7,3.8,3.4,4.8,5.1c1,1.7,1.8,3.8,2.6,6.2
			c0.8,2.4,1.2,5,1.2,7.8c0,9.1-3.3,16.5-10,21.9C395,108.8,386.3,111.5,375.4,111.5z"/>
	</g>
</g>
</svg>
